<?xml version="1.0" encoding="UTF-8" standalone="no"?>
<!DOCTYPE svg PUBLIC "-//W3C//DTD SVG 1.1//EN" "http://www.w3.org/Graphics/SVG/1.1/DTD/svg11.dtd">
<svg width="100%" height="100%" viewBox="0 0 1348 473" version="1.1" xmlns="http://www.w3.org/2000/svg" xmlns:xlink="http://www.w3.org/1999/xlink" xml:space="preserve" xmlns:serif="http://www.serif.com/" style="fill-rule:evenodd;clip-rule:evenodd;stroke-linejoin:round;stroke-miterlimit:2;">
    <g id="Artboard1" transform="matrix(1,0,0,1,-604.904,-1194.29)">
        <rect x="604.904" y="1194.29" width="1347.87" height="472.217" style="fill:none;"/>
        <clipPath id="_clip1">
            <rect x="604.904" y="1194.29" width="1347.87" height="472.217"/>
        </clipPath>
        <g clip-path="url(#_clip1)">
            <g id="Layer-1" serif:id="Layer 1" transform="matrix(4.16667,0,0,4.16667,0.904167,0.286667)">
                <g transform="matrix(1,0,0,1,462.665,298.746)">
                    <path d="M0,89.098C0,92.471 -2.744,95.215 -6.117,95.215L-305.371,95.215C-308.744,95.215 -311.488,92.471 -311.488,89.098L-311.488,0C-311.488,-3.373 -308.744,-6.117 -305.371,-6.117L-6.117,-6.117C-2.744,-6.117 0,-3.373 0,0L0,89.098ZM-6.117,-12.117L-305.371,-12.117C-312.052,-12.117 -317.488,-6.682 -317.488,0L-317.488,89.098C-317.488,95.78 -312.052,101.215 -305.371,101.215L-6.117,101.215C0.564,101.215 6,95.78 6,89.098L6,0C6,-6.682 0.564,-12.117 -6.117,-12.117" style="fill:rgb(0,117,201);fill-rule:nonzero;"/>
                </g>
                <g transform="matrix(1,0,0,1,233.841,330.406)">
                    <path d="M0,-10.334C-0.113,-9.984 -0.35,-9.675 -0.582,-9.404C-1.039,-8.797 -1.648,-8.41 -2.346,-8.181C-3.074,-7.99 -3.805,-8.1 -4.533,-8.1C-5.27,-8.1 -5.998,-8.1 -6.686,-8.149L-6.686,-9.873L-6.686,-11.6L-6.686,-13.326L-6.686,-15.052L-4.502,-15.052C-4.152,-15.01 -3.805,-15.01 -3.424,-15.01C-3.074,-15.052 -2.695,-14.972 -2.346,-14.821C-0.961,-14.363 0.037,-12.948 0.107,-11.441C0.107,-11.062 0.107,-10.712 0,-10.334M53.67,-7.91C54.279,-9.984 55.596,-11.75 57.361,-12.91C59.125,-14.015 61.242,-14.442 63.316,-14.133C65.352,-13.774 67.225,-12.629 68.531,-11.023C69.221,-10.223 69.76,-9.244 70.111,-8.259C70.449,-7.259 70.637,-6.225 70.598,-5.136C70.598,-3.879 70.258,-2.65 69.721,-1.536C69.191,-0.378 68.385,0.606 67.455,1.417C65.543,3.023 62.998,3.721 60.584,3.332C58.16,2.955 55.936,1.447 54.641,-0.658C53.32,-2.812 52.982,-5.537 53.67,-7.91M18.311,-5.348L19.158,-5.348C21.383,0.03 23.459,5.447 25.531,10.852C27.027,10.82 28.484,10.82 29.941,10.781C32.018,5.056 34.131,-0.658 36.244,-6.385C36.475,-6.416 36.703,-6.416 36.934,-6.416C37.543,-3.531 38.119,-0.658 38.578,2.266C39.088,5.177 39.578,8.047 40.074,10.971C41.502,10.971 42.92,10.932 44.373,10.932C45.801,10.932 47.227,10.932 48.643,10.902C48.453,10.282 48.295,9.586 48.186,8.939C48.146,8.602 48.104,8.26 48.104,7.902L48.104,6.865C49.143,7.752 50.141,8.668 51.217,9.478C52.334,10.244 53.521,10.932 54.75,11.441C57.213,12.508 59.855,13.086 62.551,12.978C65.191,12.857 67.846,12.12 70.23,10.902C72.604,9.667 74.719,7.857 76.404,5.756C76.525,7.441 76.635,9.099 76.754,10.781C78.211,10.781 79.664,10.82 81.121,10.781L85.5,10.781C85.232,4.061 85.193,-2.65 85.393,-9.404C90.646,-2.841 95.756,3.871 100.672,10.705C103.555,10.735 106.428,10.781 109.305,10.781C109.268,8.1 109.191,5.379 109.125,2.643C109.08,-0.037 109.041,-2.764 108.957,-5.485C108.926,-8.181 108.881,-10.9 108.844,-13.637C108.844,-16.349 108.814,-19.04 108.77,-21.765C106.078,-21.724 103.365,-21.694 100.672,-21.615C100.592,-18.463 100.592,-15.321 100.672,-12.138C100.713,-10.563 100.781,-8.986 100.742,-7.373C100.713,-6.612 100.713,-5.804 100.713,-5.037C100.672,-4.229 100.713,-3.422 100.635,-2.65C95.566,-8.986 90.498,-15.359 85.461,-21.694C84.004,-21.694 82.547,-21.663 81.084,-21.663C79.625,-21.615 78.17,-21.615 76.713,-21.577C76.674,-20.66 76.635,-19.7 76.635,-18.743C76.594,-17.784 76.594,-16.858 76.553,-15.9C75.518,-17.124 74.41,-18.313 73.143,-19.312C71.875,-20.268 70.488,-21.115 69.002,-21.724C66.068,-23.001 62.809,-23.42 59.625,-23.032C56.473,-22.614 53.402,-21.456 50.799,-19.54C48.227,-17.654 46.07,-15.052 44.723,-12.1C43.836,-15.251 43.117,-18.435 42.58,-21.694C41.232,-21.663 39.885,-21.663 38.578,-21.663L34.588,-21.663C32.477,-16.122 30.361,-10.592 28.256,-5.067C27.986,-5.067 27.686,-5.037 27.459,-5.037C25.143,-10.592 22.838,-16.122 20.543,-21.694C19.238,-21.694 17.963,-21.663 16.695,-21.663L12.813,-21.663L8.137,5.904L2.49,-2.304C5.91,-3.032 8.635,-6.146 9.094,-9.675C9.215,-10.563 9.215,-11.441 9.055,-12.326C8.943,-13.206 8.754,-14.093 8.445,-14.896C7.787,-16.547 6.75,-18.046 5.414,-19.152C4.715,-19.7 3.986,-20.16 3.178,-20.539C2.41,-20.897 1.574,-21.154 0.727,-21.237C-1,-21.388 -2.727,-21.503 -4.461,-21.577C-7.912,-21.724 -11.363,-21.694 -14.785,-21.426L-14.527,10.735C-13.139,10.705 -11.791,10.662 -10.408,10.631C-9.072,10.592 -7.686,10.592 -6.338,10.555C-6.537,7.174 -6.605,3.842 -6.566,0.462C-6.795,0.152 -6.496,-0.349 -6.109,-0.271C-3.455,3.372 -0.881,7.092 1.604,10.852C6.289,10.852 11.02,10.82 15.697,10.82L18.311,-5.348Z" style="fill:rgb(0,117,201);fill-rule:nonzero;"/>
                </g>
                <g transform="matrix(1,0,0,1,187.963,308.992)">
                    <path d="M0,32.385L9.167,6.519L9.586,32.506C15.77,32.426 21.954,32.346 28.167,32.266C28.098,29.975 28.02,27.629 27.94,25.324L17.924,25.324C17.924,23.52 17.803,21.717 17.764,19.906C20.877,19.878 23.948,19.84 27.063,19.801C27.063,17.453 27.1,15.11 27.1,12.768C24.1,12.739 21.067,12.656 18.073,12.578C18.034,10.702 18.034,8.785 17.995,6.873C21.336,6.942 24.676,7.012 27.979,7.089C27.94,4.716 27.87,2.375 27.79,0.027C20.03,0.109 12.241,0.177 4.45,0.259C1.866,6.873 -0.667,13.504 -3.232,20.111L-11.649,0.07C-14.333,-0.011 -17.017,-0.041 -19.711,-0.121L-7.422,32.317C-4.956,32.317 -2.464,32.346 0,32.385" style="fill:rgb(0,117,201);fill-rule:nonzero;"/>
                </g>
                <g transform="matrix(1,0,0,1,350.942,308.792)">
                    <path d="M0,32.546L8.828,32.546L8.828,8.44L14.861,8.44L14.861,0L-5.875,0L-5.875,8.44L0,8.44L0,32.546Z" style="fill:rgb(0,117,201);fill-rule:nonzero;"/>
                </g>
                <g transform="matrix(1,0,0,1,309.636,365.091)">
                    <path d="M0,-6.196C-0.428,-5.628 -1.117,-5.409 -1.773,-5.211C-2.424,-5.009 -3.111,-4.977 -3.811,-4.938C-4.5,-4.901 -5.197,-4.901 -5.846,-4.901L-5.846,-6.514L-5.846,-8.12L-5.846,-9.737L-5.846,-11.354L-3.811,-11.354C-3.111,-11.354 -2.424,-11.272 -1.773,-11.122C-1.117,-10.964 -0.428,-10.652 0,-10.114C0.459,-9.577 0.609,-8.856 0.609,-8.173C0.609,-7.47 0.459,-6.733 0,-6.196M4.945,5.115C4.262,4.16 3.561,3.238 2.873,2.322C4.639,1.661 6.295,0.638 7.521,-0.87C8.178,-1.598 8.668,-2.406 9.057,-3.286C9.438,-4.173 9.666,-5.128 9.865,-6.084C10.244,-7.97 10.164,-9.967 9.625,-11.85C9.137,-13.689 8.129,-15.41 6.752,-16.757C5.367,-18.067 3.639,-18.985 1.795,-19.373C-0.078,-19.714 -1.963,-19.76 -3.838,-19.76C-5.727,-19.714 -7.611,-19.76 -9.496,-19.76L-15.131,-19.76L-15.131,13.564L-5.846,13.564L-5.846,4.699C-4.926,6.162 -4,7.661 -3.082,9.154C-2.193,10.611 -1.277,12.111 -0.348,13.564L11.242,13.564C9.826,11.678 8.441,9.803 7.062,7.919C6.365,7.001 5.637,6.04 4.945,5.115" style="fill:rgb(0,117,201);fill-rule:nonzero;"/>
                </g>
                <g transform="matrix(1,0,0,1,0,-68.016)">
                    <rect x="322.224" y="413.346" width="9.287" height="33.324" style="fill:rgb(0,117,201);"/>
                </g>
                <g transform="matrix(1,0,0,1,349.685,369.828)">
                    <path d="M0,-15.781C1.764,-16.092 3.684,-15.812 5.289,-14.972C6.947,-14.176 8.289,-12.738 9.1,-11.063C9.941,-11.101 10.742,-11.063 11.592,-11.101L18.383,-11.101C18.574,-11.101 18.805,-11.101 18.965,-11.063C18.537,-13.205 17.738,-15.281 16.541,-17.116C15.395,-18.926 13.816,-20.457 12.088,-21.725C8.59,-24.221 4.209,-25.418 0,-25.065C-4.266,-24.677 -8.377,-22.804 -11.412,-19.74C-14.453,-16.66 -16.209,-12.318 -16.248,-7.949C-16.248,-3.57 -14.564,0.81 -11.518,3.879C-8.529,6.979 -4.5,9.016 -0.236,9.448C1.865,9.637 4.029,9.487 6.092,9.016C8.178,8.516 10.166,7.639 11.898,6.364C13.662,5.147 15.164,3.562 16.352,1.726C17.541,-0.082 18.357,-2.152 18.875,-4.273L18.264,-4.273L17.662,-4.273L16.391,-4.273L13.936,-4.273L11.434,-4.273L8.936,-4.273C8.1,-2.576 6.676,-1.265 5.016,-0.431C3.373,0.377 1.496,0.498 -0.311,0.121C-2.076,-0.312 -3.73,-1.349 -4.887,-2.802C-6.031,-4.273 -6.652,-6.104 -6.682,-7.992C-6.682,-9.865 -5.955,-11.752 -4.766,-13.129C-3.543,-14.546 -1.803,-15.433 0,-15.781" style="fill:rgb(0,117,201);fill-rule:nonzero;"/>
                </g>
                <g transform="matrix(1,0,0,1,202.858,378.654)">
                    <path d="M0,-33.324L-9.26,-33.324L-9.26,0L9.553,0L9.553,-8.26L0,-8.26L0,-33.324Z" style="fill:rgb(0,117,201);fill-rule:nonzero;"/>
                </g>
                <g transform="matrix(1,0,0,1,251.804,369.828)">
                    <path d="M0,-15.781C1.766,-16.092 3.689,-15.812 5.295,-14.972C6.949,-14.176 8.299,-12.738 9.105,-11.063C9.941,-11.101 10.752,-11.063 11.6,-11.101L18.391,-11.101C18.592,-11.101 18.811,-11.101 18.971,-11.063C18.551,-13.205 17.744,-15.281 16.547,-17.116C15.4,-18.926 13.822,-20.457 12.088,-21.725C8.6,-24.221 4.219,-25.418 0,-25.065C-4.26,-24.677 -8.367,-22.804 -11.393,-19.74C-14.436,-16.66 -16.201,-12.318 -16.242,-7.949C-16.242,-3.57 -14.545,0.81 -11.514,3.879C-8.52,6.979 -4.49,9.016 -0.23,9.448C1.885,9.637 4.029,9.487 6.113,9.016C8.176,8.516 10.174,7.639 11.908,6.364C13.674,5.147 15.172,3.562 16.357,1.726C17.543,-0.082 18.352,-2.152 18.891,-4.273L18.281,-4.273L17.652,-4.273L16.398,-4.273L13.932,-4.273L11.439,-4.273L8.955,-4.273C8.109,-2.576 6.682,-1.265 5.037,-0.431C3.379,0.377 1.496,0.498 -0.301,0.121C-2.066,-0.312 -3.723,-1.349 -4.869,-2.802C-6.023,-4.273 -6.645,-6.104 -6.674,-7.992C-6.674,-9.865 -5.943,-11.752 -4.76,-13.129C-3.533,-14.546 -1.809,-15.433 0,-15.781" style="fill:rgb(0,117,201);fill-rule:nonzero;"/>
                </g>
                <g transform="matrix(1,0,0,1,172.363,345.33)">
                    <path d="M0,33.324L19.27,33.324L19.27,25.064L9.297,25.064L9.297,20.658L19.27,20.658L19.27,12.33L9.297,12.33L9.297,8.298L19.27,8.298L19.27,0L0,0L0,33.324Z" style="fill:rgb(0,117,201);fill-rule:nonzero;"/>
                </g>
                <g transform="matrix(1,0,0,1,214.409,345.33)">
                    <path d="M0,33.324L19.277,33.324L19.277,25.064L9.295,25.064L9.295,20.658L19.277,20.658L19.277,12.33L9.295,12.33L9.295,8.298L19.277,8.298L19.277,0L0,0L0,33.324Z" style="fill:rgb(0,117,201);fill-rule:nonzero;"/>
                </g>
                <g transform="matrix(1,0,0,1,270.694,370.016)">
                    <path d="M0,-16.047L6.184,-16.047L6.184,8.639L15.51,8.639L15.51,-16.047L21.844,-16.047L21.844,-24.686L0,-24.686L0,-16.047Z" style="fill:rgb(0,117,201);fill-rule:nonzero;"/>
                </g>
                <g transform="matrix(1,0,0,1,430.952,374.889)">
                    <path d="M0,0.755C-0.838,-0.473 -1.662,-1.696 -2.492,-2.926L-3.99,-2.926L-3.99,3.681L-2.334,3.681L-2.334,0.001C-1.496,1.224 -0.645,2.452 0.189,3.681L1.66,3.681L1.66,-2.926L0,-2.926L0,0.755Z" style="fill:rgb(0,117,201);fill-rule:nonzero;"/>
                </g>
                <g transform="matrix(1,0,0,1,416.646,362.631)">
                    <path d="M0,2.512C-0.016,0.288 -0.029,-1.951 -0.039,-4.185C-0.039,-5.297 -0.039,-6.416 -0.059,-7.531C-0.059,-8.648 -0.066,-9.771 -0.066,-10.888C1.697,-10.902 3.453,-10.912 5.215,-10.929C6.096,-10.929 6.971,-10.944 7.846,-10.944C8.736,-10.955 9.615,-10.955 10.49,-10.967C11.367,-10.987 12.258,-10.987 13.133,-10.996C13.58,-10.996 14.01,-10.996 14.453,-11.011C14.672,-11.011 14.889,-10.967 15.104,-10.944C15.33,-10.902 15.547,-10.867 15.764,-10.825C16.195,-10.756 16.611,-10.593 17.02,-10.404C17.408,-10.215 17.785,-9.987 18.137,-9.717C18.834,-9.161 19.432,-8.464 19.848,-7.669C20.053,-7.264 20.213,-6.844 20.334,-6.4C20.459,-5.968 20.549,-5.525 20.592,-5.079C20.686,-4.173 20.592,-3.261 20.307,-2.394C20.039,-1.535 19.594,-0.734 19,-0.062C18.42,0.61 17.691,1.163 16.881,1.528C16.488,1.717 16.062,1.854 15.641,1.959C15.424,2.002 15.197,2.002 14.979,2.012C14.766,2.029 14.537,2.039 14.322,2.054C13.875,2.069 13.441,2.081 13,2.11C12.57,2.116 12.119,2.134 11.68,2.148C11.244,2.16 10.801,2.16 10.369,2.176C9.924,2.176 9.48,2.19 9.049,2.19L7.729,2.19L6.404,2.19L6.404,4.425C7.48,4.402 8.561,4.402 9.641,4.372C10.719,4.358 11.814,4.358 12.877,4.334C13.957,4.306 15.049,4.372 16.113,4.155C17.166,3.939 18.193,3.497 19.082,2.873C19.969,2.257 20.738,1.448 21.334,0.516C21.912,-0.417 22.387,-1.426 22.643,-2.501C22.912,-3.584 22.992,-4.701 22.869,-5.808C22.83,-6.088 22.803,-6.357 22.723,-6.632C22.656,-6.902 22.57,-7.168 22.494,-7.424C22.303,-7.951 22.076,-8.449 21.809,-8.933C21.264,-9.885 20.568,-10.765 19.744,-11.468C19.322,-11.816 18.865,-12.129 18.391,-12.386C17.908,-12.642 17.396,-12.828 16.881,-12.99C16.371,-13.154 15.844,-13.263 15.305,-13.328C14.766,-13.4 14.227,-13.371 13.688,-13.371C13.146,-13.371 12.607,-13.357 12.068,-13.357L10.451,-13.357C9.373,-13.339 8.291,-13.357 7.213,-13.371L3.979,-13.371C2.9,-13.357 1.818,-13.357 0.738,-13.339C-0.34,-13.339 -1.416,-13.315 -2.494,-13.301C-2.48,-12.09 -2.471,-10.877 -2.457,-9.648C-2.443,-8.435 -2.412,-7.224 -2.4,-6.01C-2.375,-3.57 -2.334,-1.131 -2.307,1.3C-2.268,3.739 -2.24,6.166 -2.197,8.604C-2.174,11.033 -2.145,13.473 -2.105,15.912L0.051,15.912C0.051,13.689 0.037,11.449 0.023,9.213C0.008,6.986 0.008,4.75 0,2.512" style="fill:rgb(0,117,201);fill-rule:nonzero;"/>
                </g>
                <g transform="matrix(1,0,0,1,425.436,376.253)">
                    <path d="M0,-20.278C0.514,-20.278 1.01,-20.278 1.525,-20.263C2.035,-20.263 2.549,-20.263 3.049,-20.254C3.561,-20.254 4.076,-20.239 4.586,-20.221C4.826,-20.221 5.084,-20.212 5.34,-20.212C5.596,-20.194 5.855,-20.194 6.098,-20.132C6.596,-19.979 7.01,-19.643 7.285,-19.185C7.537,-18.743 7.631,-18.19 7.527,-17.674C7.471,-17.42 7.375,-17.176 7.242,-16.961C7.096,-16.743 6.916,-16.544 6.717,-16.397C6.66,-16.354 6.607,-16.33 6.553,-16.288C6.5,-16.258 6.436,-16.258 6.367,-16.246C6.244,-16.203 6.121,-16.178 6.002,-16.155C5.865,-16.123 5.746,-16.102 5.621,-16.074C5.559,-16.059 5.502,-16.028 5.436,-16.028L5.246,-16.028C4.99,-16.028 4.734,-16.016 4.477,-16.016L3.723,-16.016C3.211,-16.016 2.699,-16.003 2.197,-16.003C1.687,-16.003 1.176,-15.993 0.658,-15.993C-0.35,-15.993 -1.373,-15.979 -2.387,-15.979L-2.387,-15.397C-2.396,-15.194 -2.396,-15.005 -2.396,-14.817L-2.396,-13.659C-1.697,-13.659 -0.982,-13.645 -0.268,-13.645C0.432,-13.632 1.146,-13.632 1.863,-13.645C2.564,-13.645 3.277,-13.659 3.992,-13.659C4.342,-13.659 4.693,-13.674 5.057,-13.684C5.406,-13.684 5.758,-13.645 6.121,-13.684C6.471,-13.726 6.822,-13.803 7.162,-13.94C7.484,-14.063 7.811,-14.233 8.09,-14.438C8.686,-14.859 9.143,-15.439 9.441,-16.102C9.738,-16.772 9.898,-17.499 9.871,-18.232C9.842,-18.957 9.668,-19.682 9.334,-20.33C9.238,-20.491 9.156,-20.659 9.051,-20.79C8.928,-20.936 8.811,-21.056 8.672,-21.196C8.426,-21.434 8.131,-21.665 7.834,-21.854C7.242,-22.257 6.539,-22.516 5.838,-22.53C5.123,-22.555 4.412,-22.542 3.707,-22.542C2.992,-22.555 2.279,-22.555 1.578,-22.555C0.148,-22.568 -1.27,-22.568 -2.682,-22.587C-4.113,-22.587 -5.525,-22.596 -6.945,-22.596C-6.945,-21.559 -6.932,-20.524 -6.918,-19.483C-6.902,-18.442 -6.891,-17.408 -6.877,-16.368C-6.852,-14.29 -6.822,-12.219 -6.797,-10.139C-6.781,-8.063 -6.756,-5.985 -6.729,-3.911C-6.699,-1.836 -6.676,0.242 -6.646,2.318L-4.598,2.318C-4.598,0.445 -4.598,-1.43 -4.584,-3.319L-4.584,-8.94L-4.584,-14.575L-4.584,-17.393L-4.584,-20.212C-3.561,-20.221 -2.549,-20.254 -1.521,-20.263C-1.023,-20.278 -0.514,-20.278 0,-20.278" style="fill:rgb(0,117,201);fill-rule:nonzero;"/>
                </g>
                <g transform="matrix(1,0,0,1,436.685,321.663)">
                    <path d="M0,8.441C-0.957,10.841 -2.75,12.861 -4.963,14.074C-7.187,15.303 -9.822,15.697 -12.287,15.195C-14.752,14.695 -17.033,13.283 -18.623,11.286C-20.229,9.279 -21.119,6.714 -21.119,4.125C-21.119,2.454 -20.754,0.796 -20.068,-0.7C-19.367,-2.212 -18.355,-3.543 -17.1,-4.61C-15.859,-5.66 -14.375,-6.431 -12.813,-6.833C-11.232,-7.235 -9.588,-7.283 -8,-6.956C-6.422,-6.616 -4.895,-5.929 -3.604,-4.945C-2.305,-3.95 -1.227,-2.669 -0.461,-1.198C0.295,0.269 0.742,1.902 0.822,3.574C0.904,5.232 0.619,6.903 0,8.441M-2.4,-6.616C-3.939,-7.789 -5.717,-8.613 -7.607,-8.992C-9.48,-9.382 -11.436,-9.328 -13.297,-8.84C-15.16,-8.371 -16.91,-7.472 -18.381,-6.213C-19.865,-4.959 -21.08,-3.381 -21.889,-1.602C-22.711,0.191 -23.141,2.144 -23.141,4.115C-23.141,7.187 -22.074,10.234 -20.191,12.606C-18.299,14.968 -15.605,16.638 -12.676,17.235C-9.75,17.823 -6.637,17.353 -4.006,15.91C-1.377,14.463 0.742,12.067 1.873,9.236C2.604,7.415 2.939,5.436 2.844,3.462C2.748,1.498 2.225,-0.448 1.32,-2.185C0.42,-3.922 -0.865,-5.447 -2.4,-6.616" style="fill:rgb(0,117,201);fill-rule:nonzero;"/>
                </g>
                <g transform="matrix(1,0,0,1,432.948,323.2)">
                    <path d="M0,5.312C-0.605,6.824 -1.727,8.087 -3.131,8.873C-4.541,9.638 -6.189,9.882 -7.752,9.578C-9.318,9.251 -10.748,8.373 -11.76,7.105C-12.768,5.839 -13.336,4.22 -13.336,2.578C-13.336,0.472 -12.395,-1.606 -10.803,-2.937C-9.223,-4.272 -7.064,-4.826 -5.059,-4.418C-3.035,-4.002 -1.254,-2.642 -0.285,-0.782C0.674,1.082 0.793,3.359 0,5.312M-1.064,-4.815C-2.131,-5.62 -3.359,-6.175 -4.652,-6.444C-5.945,-6.713 -7.297,-6.67 -8.574,-6.348C-9.857,-6.013 -11.059,-5.389 -12.084,-4.531C-14.133,-2.814 -15.357,-0.135 -15.357,2.587C-15.357,4.708 -14.633,6.794 -13.32,8.428C-12.016,10.056 -10.168,11.201 -8.145,11.623C-6.137,12.025 -3.994,11.705 -2.186,10.708C-0.363,9.707 1.08,8.064 1.875,6.108C2.885,3.603 2.752,0.636 1.496,-1.752C0.863,-2.95 0,-4.002 -1.064,-4.815" style="fill:rgb(0,117,201);fill-rule:nonzero;"/>
                </g>
                <g transform="matrix(1,0,0,1,442.874,370.066)">
                    <path d="M0,-16.355C-0.229,-17.058 -0.525,-17.72 -0.877,-18.365C-1.566,-19.648 -2.471,-20.806 -3.549,-21.775C-4.611,-22.748 -5.855,-23.529 -7.187,-24.068C-7.846,-24.337 -8.537,-24.539 -9.238,-24.675C-9.939,-24.808 -10.654,-24.859 -11.367,-24.859C-12.082,-24.849 -12.799,-24.859 -13.514,-24.859C-14.227,-24.859 -14.941,-24.859 -15.656,-24.849C-17.086,-24.849 -18.5,-24.835 -19.932,-24.835C-21.361,-24.822 -22.789,-24.822 -24.219,-24.808C-27.076,-24.797 -29.939,-24.783 -32.783,-24.769L-32.783,-20.604C-32.783,-19.226 -32.783,-17.839 -32.77,-16.452C-32.77,-15.061 -32.756,-13.674 -32.756,-12.287C-32.74,-10.896 -32.73,-9.519 -32.719,-8.132C-32.705,-6.742 -32.689,-5.354 -32.662,-3.966C-32.646,-2.578 -32.637,-1.189 -32.609,0.184C-32.58,1.575 -32.553,2.967 -32.541,4.351C-32.512,5.745 -32.473,7.131 -32.447,8.504L-30.545,8.504C-30.545,5.916 -30.559,3.327 -30.572,0.737C-30.584,-1.866 -30.598,-4.455 -30.611,-7.039C-30.627,-9.63 -30.641,-12.228 -30.654,-14.824C-30.654,-16.113 -30.654,-17.408 -30.664,-18.704C-30.664,-20.007 -30.678,-21.304 -30.678,-22.597C-28.17,-22.611 -25.676,-22.64 -23.17,-22.667C-21.912,-22.667 -20.66,-22.681 -19.404,-22.691C-18.15,-22.706 -16.912,-22.722 -15.656,-22.722C-15.023,-22.734 -14.402,-22.734 -13.77,-22.734C-13.148,-22.748 -12.531,-22.748 -11.895,-22.762L-10.953,-22.762C-10.639,-22.762 -10.332,-22.706 -10.02,-22.667C-9.398,-22.557 -8.795,-22.394 -8.211,-22.164C-7.029,-21.738 -5.936,-21.078 -4.979,-20.242C-4.018,-19.413 -3.225,-18.39 -2.617,-17.273C-2.012,-16.141 -1.605,-14.899 -1.416,-13.632C-1.242,-12.353 -1.293,-11.043 -1.553,-9.793C-1.809,-8.521 -2.252,-7.298 -2.889,-6.192C-3.535,-5.087 -4.355,-4.103 -5.324,-3.281C-5.812,-2.874 -6.34,-2.509 -6.881,-2.201C-7.432,-1.876 -8.01,-1.634 -8.605,-1.445C-9.209,-1.269 -9.83,-1.147 -10.451,-1.093C-11.07,-1.052 -11.711,-1.066 -12.326,-1.066C-13.584,-1.052 -14.832,-1.052 -16.09,-1.041C-17.346,-1.025 -18.596,-1.025 -19.85,-1.017L-19.85,1.102C-19.135,1.12 -18.42,1.131 -17.705,1.131C-16.99,1.149 -16.275,1.149 -15.561,1.149L-13.418,1.149C-12.703,1.131 -11.988,1.149 -11.271,1.102C-10.559,1.064 -9.857,0.942 -9.158,0.78C-8.469,0.616 -7.781,0.387 -7.119,0.108C-5.812,-0.46 -4.588,-1.255 -3.521,-2.24C-2.471,-3.224 -1.566,-4.394 -0.877,-5.678C-0.207,-6.976 0.297,-8.376 0.5,-9.83C0.717,-11.289 0.717,-12.77 0.486,-14.212C0.377,-14.941 0.23,-15.668 0,-16.355" style="fill:rgb(0,117,201);fill-rule:nonzero;"/>
                </g>
                <g transform="matrix(1,0,0,1,440.417,319.854)">
                    <path d="M0,11.841C-0.752,13.713 -1.873,15.427 -3.264,16.857C-4.65,18.282 -6.309,19.432 -8.131,20.212C-10.869,21.386 -13.9,21.707 -16.814,21.087C-17.771,20.886 -18.717,20.59 -19.635,20.212C-21.451,19.432 -23.113,18.282 -24.502,16.857C-25.889,15.427 -27.01,13.713 -27.762,11.841C-28.518,9.98 -28.896,7.958 -28.896,5.933C-28.896,3.915 -28.518,1.891 -27.762,0.015C-27.01,-1.848 -25.889,-3.556 -24.502,-4.983C-23.113,-6.417 -21.451,-7.561 -19.635,-8.343C-18.717,-8.719 -17.771,-9.015 -16.814,-9.219C-16.328,-9.312 -15.846,-9.394 -15.357,-9.431C-15.236,-9.445 -15.115,-9.464 -14.98,-9.474C-13.633,-9.607 -12.27,-9.474 -10.945,-9.219C-10.463,-9.123 -9.99,-8.99 -9.518,-8.854C-9.049,-8.708 -8.588,-8.532 -8.131,-8.343C-6.309,-7.561 -4.65,-6.417 -3.264,-4.983C-1.873,-3.556 -0.752,-1.848 0,0.015C0.758,1.891 1.146,3.915 1.146,5.933C1.146,7.958 0.758,9.98 0,11.841M-1.834,-6.468C-3.406,-8.088 -5.299,-9.394 -7.359,-10.27C-9.422,-11.145 -11.652,-11.604 -13.873,-11.604C-16.115,-11.604 -18.338,-11.145 -20.402,-10.27C-22.465,-9.394 -24.35,-8.088 -25.93,-6.468C-27.506,-4.85 -28.775,-2.895 -29.627,-0.778C-30.488,1.337 -30.918,3.628 -30.918,5.923C-30.918,8.228 -30.488,10.519 -29.627,12.636C-28.775,14.755 -27.506,16.693 -25.93,18.323C-24.35,19.943 -22.465,21.236 -20.402,22.124C-18.338,23 -16.115,23.445 -13.873,23.445C-11.652,23.445 -9.422,23 -7.359,22.124C-5.299,21.236 -3.406,19.943 -1.834,18.325C-0.256,16.693 1.012,14.755 1.865,12.636C2.727,10.519 3.174,8.228 3.174,5.923C3.174,3.628 2.727,1.337 1.865,-0.778C1.012,-2.895 -0.256,-4.85 -1.834,-6.468" style="fill:rgb(0,117,201);fill-rule:nonzero;"/>
                </g>
                <g transform="matrix(1,0,0,1,438.595,376.038)">
                    <path d="M0,-1.513C0.246,-1.633 0.6,-1.538 0.881,-1.566C1.014,-1.579 1.18,-1.552 1.322,-1.566C1.475,-1.566 1.621,-1.579 1.771,-1.552C1.42,-3.238 -0.309,-4.383 -2.035,-4.195C-3.756,-4.009 -5.135,-2.497 -5.148,-0.798C-5.148,0.9 -3.813,2.423 -2.086,2.655C-0.359,2.87 1.391,1.777 1.732,0.065C1.609,0.108 1.432,0.075 1.301,0.075C1.15,0.075 0.99,0.087 0.838,0.075C0.559,0.051 0.207,0.158 -0.023,0.028C-0.914,1.819 -3.463,0.928 -3.449,-0.817C-3.436,-2.564 -0.805,-3.303 0,-1.513" style="fill:rgb(0,117,201);fill-rule:nonzero;"/>
                </g>
                <g transform="matrix(1,0,0,1,0,-41.466)">
                    <rect x="424.425" y="413.43" width="1.658" height="6.606" style="fill:rgb(0,117,201);"/>
                </g>
                <g transform="matrix(1,0,0,1,406.124,355.704)">
                    <path d="M0,11.839C-0.754,13.712 -1.873,15.426 -3.262,16.855C-4.648,18.284 -6.309,19.431 -8.125,20.194C-9.949,20.983 -11.922,21.37 -13.875,21.37C-15.846,21.37 -17.811,20.983 -19.631,20.194C-21.453,19.431 -23.109,18.284 -24.5,16.855C-25.889,15.426 -27.01,13.712 -27.762,11.839C-28.506,9.98 -28.895,7.957 -28.895,5.933C-28.895,3.907 -28.52,1.889 -27.762,0.016C-27.01,-1.849 -25.889,-3.573 -24.5,-5.001C-23.109,-6.431 -21.453,-7.575 -19.631,-8.344C-15.949,-9.896 -11.813,-9.896 -8.125,-8.344C-6.309,-7.575 -4.648,-6.431 -3.262,-5.001C-1.873,-3.573 -0.754,-1.849 0,0.016C0.758,1.889 1.146,3.907 1.146,5.933C1.146,7.957 0.758,9.98 0,11.839M-1.832,-6.473C-3.412,-8.091 -5.297,-9.398 -7.359,-10.27C-9.424,-11.149 -11.652,-11.605 -13.875,-11.605C-16.115,-11.605 -18.34,-11.149 -20.398,-10.27C-22.463,-9.398 -24.35,-8.091 -25.932,-6.473C-27.506,-4.852 -28.775,-2.911 -29.623,-0.784C-30.488,1.333 -30.92,3.624 -30.92,5.921C-30.92,8.227 -30.488,10.517 -29.623,12.63C-28.775,14.749 -27.506,16.694 -25.932,18.327C-24.35,19.941 -22.463,21.235 -20.398,22.124C-18.34,22.997 -16.115,23.444 -13.875,23.444C-11.652,23.444 -9.424,22.997 -7.359,22.124C-5.297,21.235 -3.412,19.941 -1.832,18.327C-0.256,16.694 1.014,14.749 1.861,12.63C2.727,10.517 3.168,8.227 3.168,5.921C3.168,3.624 2.727,1.333 1.861,-0.784C1.014,-2.911 -0.256,-4.852 -1.832,-6.473" style="fill:rgb(0,117,201);fill-rule:nonzero;"/>
                </g>
                <g transform="matrix(1,0,0,1,402.394,357.514)">
                    <path d="M0,8.435C-0.959,10.838 -2.752,12.859 -4.967,14.072C-7.191,15.297 -9.818,15.694 -12.289,15.189C-14.756,14.677 -17.035,13.276 -18.627,11.283C-20.232,9.271 -21.117,6.714 -21.117,4.123C-21.117,2.451 -20.756,0.793 -20.066,-0.702C-19.365,-2.215 -18.354,-3.55 -17.1,-4.612C-15.863,-5.665 -14.377,-6.434 -12.811,-6.839C-11.234,-7.239 -9.588,-7.282 -8.002,-6.959C-6.422,-6.637 -4.896,-5.936 -3.605,-4.952C-2.309,-3.953 -1.229,-2.674 -0.463,-1.204C0.295,0.265 0.738,1.894 0.82,3.576C0.9,5.228 0.617,6.9 0,8.435M-2.404,-6.619C-3.941,-7.797 -5.734,-8.616 -7.609,-8.994C-9.482,-9.385 -11.439,-9.329 -13.297,-8.858C-15.158,-8.372 -16.914,-7.474 -18.395,-6.216C-19.863,-4.963 -21.08,-3.381 -21.889,-1.605C-22.711,0.189 -23.143,2.142 -23.143,4.111C-23.143,7.185 -22.078,10.232 -20.189,12.603C-18.305,14.966 -15.602,16.636 -12.678,17.224C-9.752,17.82 -6.639,17.347 -4.006,15.91C-1.377,14.464 0.738,12.064 1.875,9.233C2.6,7.408 2.936,5.433 2.846,3.458C2.75,1.496 2.221,-0.447 1.318,-2.188C0.414,-3.925 -0.865,-5.45 -2.404,-6.619" style="fill:rgb(0,117,201);fill-rule:nonzero;"/>
                </g>
                <g transform="matrix(1,0,0,1,378.835,315.53)">
                    <path d="M0,20.505C0.525,21.247 1.117,21.946 1.75,22.593C2.074,22.919 2.41,23.23 2.75,23.525C3.1,23.823 3.451,24.105 3.814,24.376C4.18,24.631 4.58,24.831 4.988,25.048C5.381,25.265 5.797,25.45 6.199,25.626C7.023,25.99 7.875,26.302 8.736,26.558C9.598,26.814 10.475,27.016 11.355,27.15C12.242,27.3 13.133,27.38 14.037,27.396C14.479,27.407 14.924,27.407 15.367,27.396C15.832,27.367 16.275,27.367 16.721,27.367C17.609,27.357 18.514,27.339 19.404,27.339C22.992,27.314 26.58,27.276 30.166,27.245L30.166,26.989L30.166,26.737L30.166,26.235L30.166,25.98L30.166,25.724L30.166,25.468L30.166,25.345L30.166,25.223C28.52,25.223 26.873,25.223 25.227,25.234C23.584,25.234 21.936,25.234 20.293,25.249L17.824,25.249C17.004,25.249 16.195,25.249 15.367,25.265C14.549,25.265 13.725,25.276 12.902,25.198C12.078,25.115 11.27,24.968 10.475,24.768C9.68,24.552 8.896,24.28 8.141,23.944C7.389,23.618 6.66,23.216 5.959,22.784C4.543,21.923 3.275,20.802 2.225,19.495C1.184,18.199 0.35,16.704 -0.203,15.112C-0.473,14.318 -0.691,13.495 -0.822,12.657C-0.891,12.255 -0.918,11.824 -0.947,11.406C-0.971,10.985 -0.988,10.558 -0.971,10.137C-0.947,8.452 -0.652,6.769 -0.109,5.163C0.432,3.573 1.211,2.064 2.195,0.715C3.182,-0.648 4.379,-1.85 5.797,-2.726C6.498,-3.158 7.24,-3.517 8.021,-3.802C8.803,-4.08 9.598,-4.274 10.408,-4.394C10.824,-4.449 11.23,-4.464 11.648,-4.464C12.055,-4.464 12.471,-4.475 12.877,-4.491C13.697,-4.491 14.521,-4.506 15.344,-4.519C16.168,-4.53 16.99,-4.544 17.814,-4.558C18.633,-4.573 19.457,-4.586 20.279,-4.586C21.922,-4.61 23.559,-4.634 25.201,-4.666C26.844,-4.677 28.492,-4.706 30.139,-4.733L30.139,-4.866L30.139,-5.003C30.139,-5.098 30.139,-5.179 30.152,-5.273L30.152,-5.542L30.152,-5.823C30.152,-6.002 30.166,-6.178 30.166,-6.367L30.166,-6.632L30.166,-6.902C28.369,-6.888 26.588,-6.877 24.795,-6.864C23.006,-6.835 21.209,-6.821 19.416,-6.807C17.621,-6.793 15.832,-6.782 14.037,-6.768C13.148,-6.755 12.242,-6.755 11.355,-6.741C10.451,-6.731 9.559,-6.609 8.684,-6.404C7.818,-6.202 6.953,-5.903 6.145,-5.531C5.326,-5.15 4.543,-4.691 3.814,-4.155C3.09,-3.626 2.398,-3.021 1.789,-2.348C1.48,-2.011 1.197,-1.657 0.914,-1.297C0.648,-0.929 0.363,-0.568 0.105,-0.19C-0.934,1.321 -1.74,2.976 -2.309,4.733C-2.861,6.484 -3.172,8.317 -3.213,10.163C-3.252,11.997 -2.982,13.845 -2.428,15.61C-1.889,17.364 -1.068,19.023 0,20.505" style="fill:rgb(0,117,201);fill-rule:nonzero;"/>
                </g>
                <g transform="matrix(1,0,0,1,398.655,359.042)">
                    <path d="M0,5.306C-0.605,6.826 -1.727,8.095 -3.129,8.876C-4.543,9.643 -6.189,9.888 -7.752,9.579C-9.318,9.257 -10.746,8.379 -11.76,7.114C-12.77,5.846 -13.336,4.228 -13.336,2.583C-13.336,0.479 -12.395,-1.599 -10.803,-2.933C-9.223,-4.264 -7.066,-4.819 -5.055,-4.421C-3.033,-4 -1.254,-2.634 -0.283,-0.775C0.672,1.088 0.797,3.361 0,5.306M-1.064,-4.819C-2.135,-5.631 -3.355,-6.182 -4.652,-6.454C-5.947,-6.717 -7.297,-6.678 -8.576,-6.356C-9.857,-6.017 -11.059,-5.397 -12.084,-4.538C-14.131,-2.827 -15.357,-0.139 -15.357,2.583C-15.357,4.704 -14.629,6.788 -13.322,8.421C-12.016,10.052 -10.17,11.192 -8.145,11.616C-6.137,12.023 -3.988,11.695 -2.184,10.697C-0.363,9.702 1.078,8.056 1.875,6.101C2.887,3.597 2.75,0.625 1.498,-1.756C0.863,-2.96 0,-4.008 -1.064,-4.819" style="fill:rgb(0,117,201);fill-rule:nonzero;"/>
                </g>
                <g transform="matrix(1,0,0,1,384.821,333.902)">
                    <path d="M0,-15.945C0.484,-16.46 1.008,-16.915 1.59,-17.322C2.154,-17.71 2.775,-18.035 3.438,-18.278C4.086,-18.519 4.762,-18.697 5.447,-18.777C6.133,-18.855 6.836,-18.831 7.521,-18.845L9.6,-18.845C10.289,-18.855 10.99,-18.855 11.678,-18.855C13.063,-18.873 14.455,-18.873 15.832,-18.883C17.219,-18.883 18.607,-18.898 19.982,-18.898C21.369,-18.911 22.76,-18.922 24.152,-18.922L24.152,-19.195L24.152,-19.462L24.152,-20.015L24.152,-20.559L24.152,-20.829L24.152,-21.098C21.09,-21.08 18.027,-21.056 14.967,-21.042C13.441,-21.031 11.922,-21.013 10.381,-21C9.629,-21 8.855,-21 8.09,-20.986C7.336,-20.975 6.566,-20.986 5.797,-20.962C5.045,-20.946 4.285,-20.814 3.545,-20.611C2.803,-20.409 2.088,-20.113 1.416,-19.76C0.053,-19.031 -1.117,-17.98 -2.09,-16.767C-3.063,-15.552 -3.857,-14.179 -4.387,-12.711C-4.926,-11.24 -5.258,-9.677 -5.301,-8.115C-5.338,-6.535 -5.072,-4.959 -4.506,-3.504C-3.951,-2.033 -3.074,-0.709 -2.049,0.448C-1.027,1.621 0.189,2.601 1.52,3.36C2.873,4.116 4.326,4.655 5.826,4.924C6.58,5.073 7.348,5.139 8.104,5.153C8.492,5.153 8.871,5.139 9.25,5.129L10.395,5.129C11.932,5.1 13.455,5.086 14.98,5.073C16.518,5.047 18.041,5.031 19.566,5.02C21.105,5.005 22.627,4.977 24.166,4.964L24.166,4.693L24.166,4.412L24.166,3.87C24.18,3.682 24.18,3.494 24.18,3.321L24.18,3.037L24.18,2.766C21.41,2.742 18.648,2.729 15.869,2.7C14.482,2.686 13.105,2.672 11.719,2.657C11.029,2.657 10.328,2.657 9.641,2.645C8.951,2.645 8.254,2.633 7.564,2.633C7.213,2.633 6.877,2.619 6.527,2.619C6.352,2.619 6.174,2.576 6.012,2.567C5.836,2.539 5.662,2.496 5.5,2.472C4.811,2.322 4.152,2.109 3.518,1.834C2.238,1.289 1.076,0.475 0.092,-0.537C-1.877,-2.546 -3.023,-5.361 -3.037,-8.218C-3.037,-9.65 -2.777,-11.064 -2.268,-12.385C-1.74,-13.709 -0.971,-14.922 0,-15.945" style="fill:rgb(0,117,201);fill-rule:nonzero;"/>
                </g>
                <g transform="matrix(1,0,0,1,387.827,330.574)">
                    <path d="M0,-9.515C0.389,-9.935 0.834,-10.284 1.336,-10.542C1.816,-10.8 2.363,-10.974 2.912,-11.04C3.047,-11.066 3.18,-11.082 3.332,-11.096L3.734,-11.096C4.018,-11.107 4.301,-11.107 4.572,-11.123C5.674,-11.132 6.797,-11.162 7.902,-11.191C9.006,-11.2 10.129,-11.229 11.23,-11.242C12.338,-11.267 13.445,-11.294 14.566,-11.309C15.67,-11.338 16.777,-11.351 17.895,-11.376C18.998,-11.404 20.104,-11.417 21.213,-11.447L21.213,-11.565L21.213,-11.703L21.213,-11.953L21.213,-12.454L21.213,-12.714L21.213,-12.97L21.213,-13.226L21.213,-13.358L21.213,-13.48C19.957,-13.467 18.703,-13.467 17.449,-13.456C16.197,-13.456 14.928,-13.456 13.674,-13.439C12.418,-13.439 11.168,-13.424 9.9,-13.424C9.281,-13.415 8.645,-13.415 8.023,-13.415C7.389,-13.415 6.754,-13.398 6.133,-13.398L5.191,-13.398C5.029,-13.398 4.881,-13.398 4.723,-13.387C4.559,-13.387 4.41,-13.415 4.25,-13.424C3.629,-13.48 2.992,-13.456 2.375,-13.345C1.131,-13.131 -0.043,-12.578 -1.027,-11.769C-2.01,-10.96 -2.764,-9.88 -3.262,-8.693C-3.777,-7.509 -4.033,-6.226 -4.033,-4.93C-4.018,-3.637 -3.748,-2.344 -3.236,-1.175C-2.711,0.013 -1.941,1.065 -1.012,1.93C-0.066,2.792 1.08,3.411 2.305,3.695C3.549,3.965 4.814,3.856 6.07,3.87C7.322,3.898 8.576,3.885 9.83,3.898C11.098,3.898 12.352,3.898 13.607,3.913C14.861,3.913 16.115,3.913 17.383,3.923L19.254,3.923C19.889,3.923 20.525,3.936 21.146,3.923L21.146,3.667L21.146,3.411L21.146,3.156L21.146,2.901L21.146,2.387L21.146,2.132L21.146,1.878C18.918,1.86 16.707,1.835 14.488,1.821C13.375,1.81 12.271,1.794 11.152,1.778C10.045,1.768 8.939,1.768 7.832,1.755C7.27,1.737 6.715,1.737 6.162,1.737C5.896,1.737 5.611,1.727 5.328,1.727C5.059,1.727 4.771,1.702 4.506,1.674C3.951,1.618 3.385,1.608 2.844,1.47C2.305,1.337 1.793,1.135 1.307,0.85C0.824,0.567 0.379,0.229 -0.014,-0.175C-0.406,-0.579 -0.758,-1.036 -1.012,-1.548C-1.283,-2.046 -1.457,-2.586 -1.59,-3.14C-1.713,-3.703 -1.766,-4.271 -1.766,-4.839C-1.752,-5.988 -1.486,-7.116 -0.957,-8.124C-0.701,-8.626 -0.379,-9.113 0,-9.515" style="fill:rgb(0,117,201);fill-rule:nonzero;"/>
                </g>
            </g>
        </g>
    </g>
</svg>
